<?xml version="1.0" encoding="utf-8"?>
<!-- Generator: Adobe Adobe Illustrator 24.2.0, SVG Export Plug-In . SVG Version: 6.00 Build 0)  -->
<svg version="1.1" id="Layer_1" xmlns="http://www.w3.org/2000/svg" xmlns:xlink="http://www.w3.org/1999/xlink" x="0px" y="0px"
	 width="553.65px" height="561.52px" viewBox="0 0 553.65 561.52" style="enable-background:new 0 0 553.65 561.52;"
	 xml:space="preserve">
<style type="text/css">
	.st0{clip-path:url(#SVGID_7_);}
	.st1{clip-path:url(#SVGID_8_);}
	.st2{clip-path:url(#SVGID_9_);}
	.st3{clip-path:url(#SVGID_10_);}
	.st4{clip-path:url(#SVGID_11_);}
	.st5{clip-path:url(#SVGID_12_);}
	.st6{clip-path:url(#SVGID_14_);}
	.st7{clip-path:url(#SVGID_20_);}
	.st8{clip-path:url(#SVGID_21_);}
	.st9{clip-path:url(#SVGID_22_);}
	.st10{clip-path:url(#SVGID_23_);}
	.st11{clip-path:url(#SVGID_24_);}
	.st12{clip-path:url(#SVGID_27_);}
	.st13{clip-path:url(#SVGID_28_);}
	.st14{clip-path:url(#SVGID_32_);}
	.st15{clip-path:url(#SVGID_33_);}
	.st16{clip-path:url(#SVGID_34_);}
	.st17{clip-path:url(#SVGID_204_);}
	.st18{clip-path:url(#SVGID_205_);}
	.st19{clip-path:url(#SVGID_206_);}
	.st20{clip-path:url(#SVGID_207_);}
	.st21{clip-path:url(#SVGID_208_);}
	.st22{clip-path:url(#SVGID_209_);}
	.st23{clip-path:url(#SVGID_210_);}
	.st24{clip-path:url(#SVGID_211_);}
	.st25{clip-path:url(#SVGID_212_);}
	.st26{clip-path:url(#SVGID_213_);}
	.st27{clip-path:url(#SVGID_214_);}
	.st28{clip-path:url(#SVGID_215_);}
	.st29{clip-path:url(#SVGID_216_);}
	.st30{clip-path:url(#SVGID_217_);}
	.st31{clip-path:url(#SVGID_218_);}
	.st32{clip-path:url(#SVGID_219_);}
	.st33{clip-path:url(#SVGID_220_);}
	.st34{clip-path:url(#SVGID_221_);}
	.st35{clip-path:url(#SVGID_222_);}
	.st36{clip-path:url(#SVGID_223_);}
	.st37{clip-path:url(#SVGID_224_);}
	.st38{clip-path:url(#SVGID_225_);}
	.st39{clip-path:url(#SVGID_226_);}
	.st40{clip-path:url(#SVGID_227_);}
	.st41{clip-path:url(#SVGID_228_);}
	.st42{clip-path:url(#SVGID_229_);}
	.st43{clip-path:url(#SVGID_230_);}
	.st44{clip-path:url(#SVGID_231_);}
	.st45{clip-path:url(#SVGID_232_);}
	.st46{clip-path:url(#SVGID_233_);}
	.st47{clip-path:url(#SVGID_234_);}
	.st48{clip-path:url(#SVGID_235_);}
	.st49{clip-path:url(#SVGID_236_);}
	.st50{clip-path:url(#SVGID_237_);}
	.st51{clip-path:url(#SVGID_238_);}
	.st52{clip-path:url(#SVGID_239_);}
	.st53{clip-path:url(#SVGID_240_);}
	.st54{clip-path:url(#SVGID_241_);}
	.st55{clip-path:url(#SVGID_242_);}
	.st56{clip-path:url(#SVGID_243_);}
	.st57{clip-path:url(#SVGID_244_);}
	.st58{clip-path:url(#SVGID_245_);}
	.st59{clip-path:url(#SVGID_246_);}
	.st60{clip-path:url(#SVGID_247_);}
	.st61{clip-path:url(#SVGID_248_);}
	.st62{clip-path:url(#SVGID_249_);}
	.st63{clip-path:url(#SVGID_250_);}
	.st64{clip-path:url(#SVGID_251_);}
	.st65{clip-path:url(#SVGID_252_);}
	.st66{clip-path:url(#SVGID_253_);}
	.st67{clip-path:url(#SVGID_254_);}
	.st68{clip-path:url(#SVGID_255_);}
	.st69{clip-path:url(#SVGID_256_);}
	.st70{clip-path:url(#SVGID_257_);}
	.st71{clip-path:url(#SVGID_258_);}
	.st72{clip-path:url(#SVGID_259_);}
	.st73{clip-path:url(#SVGID_260_);}
	.st74{clip-path:url(#SVGID_261_);}
	.st75{clip-path:url(#SVGID_262_);}
	.st76{clip-path:url(#SVGID_263_);}
	.st77{clip-path:url(#SVGID_264_);}
	.st78{clip-path:url(#SVGID_265_);}
	.st79{clip-path:url(#SVGID_266_);}
	.st80{clip-path:url(#SVGID_267_);}
	.st81{clip-path:url(#SVGID_268_);}
	.st82{clip-path:url(#SVGID_269_);}
	.st83{clip-path:url(#SVGID_270_);}
	.st84{clip-path:url(#SVGID_271_);}
	.st85{clip-path:url(#SVGID_272_);}
	.st86{clip-path:url(#SVGID_273_);}
	.st87{clip-path:url(#SVGID_274_);}
	.st88{clip-path:url(#SVGID_275_);}
	.st89{clip-path:url(#SVGID_276_);}
	.st90{clip-path:url(#SVGID_277_);}
	.st91{clip-path:url(#SVGID_278_);}
	.st92{clip-path:url(#SVGID_279_);}
	.st93{clip-path:url(#SVGID_280_);}
	.st94{clip-path:url(#SVGID_281_);}
	.st95{clip-path:url(#SVGID_282_);}
	.st96{clip-path:url(#SVGID_283_);}
	.st97{clip-path:url(#SVGID_284_);}
	.st98{clip-path:url(#SVGID_285_);}
	.st99{clip-path:url(#SVGID_286_);}
	.st100{clip-path:url(#SVGID_287_);}
	.st101{clip-path:url(#SVGID_288_);}
	.st102{clip-path:url(#SVGID_289_);}
	.st103{clip-path:url(#SVGID_290_);}
	.st104{clip-path:url(#SVGID_291_);}
	.st105{clip-path:url(#SVGID_292_);}
	.st106{clip-path:url(#SVGID_293_);}
	.st107{clip-path:url(#SVGID_294_);}
	.st108{clip-path:url(#SVGID_295_);}
	.st109{clip-path:url(#SVGID_296_);}
	.st110{clip-path:url(#SVGID_297_);}
	.st111{clip-path:url(#SVGID_298_);}
	.st112{clip-path:url(#SVGID_299_);}
	.st113{clip-path:url(#SVGID_300_);}
	.st114{clip-path:url(#SVGID_301_);}
	.st115{clip-path:url(#SVGID_302_);}
	.st116{clip-path:url(#SVGID_303_);}
	.st117{clip-path:url(#SVGID_304_);}
	.st118{clip-path:url(#SVGID_305_);}
	.st119{clip-path:url(#SVGID_306_);}
	.st120{clip-path:url(#SVGID_307_);}
	.st121{clip-path:url(#SVGID_308_);}
	.st122{clip-path:url(#SVGID_309_);}
	.st123{clip-path:url(#SVGID_310_);}
	.st124{clip-path:url(#SVGID_311_);}
	.st125{clip-path:url(#SVGID_312_);}
	.st126{clip-path:url(#SVGID_313_);}
	.st127{clip-path:url(#SVGID_314_);}
	.st128{clip-path:url(#SVGID_315_);}
	.st129{clip-path:url(#SVGID_316_);}
	.st130{clip-path:url(#SVGID_317_);}
	.st131{clip-path:url(#SVGID_318_);}
	.st132{clip-path:url(#SVGID_319_);}
	.st133{clip-path:url(#SVGID_320_);}
	.st134{clip-path:url(#SVGID_321_);}
	.st135{clip-path:url(#SVGID_322_);}
	.st136{clip-path:url(#SVGID_323_);}
	.st137{clip-path:url(#SVGID_324_);}
	.st138{clip-path:url(#SVGID_325_);}
	.st139{clip-path:url(#SVGID_326_);}
	.st140{clip-path:url(#SVGID_327_);}
	.st141{clip-path:url(#SVGID_328_);}
	.st142{clip-path:url(#SVGID_329_);}
	.st143{clip-path:url(#SVGID_330_);}
	.st144{clip-path:url(#SVGID_331_);}
	.st145{clip-path:url(#SVGID_332_);}
	.st146{clip-path:url(#SVGID_333_);}
	.st147{clip-path:url(#SVGID_334_);}
	.st148{clip-path:url(#SVGID_335_);}
	.st149{clip-path:url(#SVGID_336_);}
	.st150{clip-path:url(#SVGID_337_);}
	.st151{clip-path:url(#SVGID_338_);}
	.st152{clip-path:url(#SVGID_339_);}
	.st153{clip-path:url(#SVGID_340_);}
	.st154{clip-path:url(#SVGID_341_);}
	.st155{clip-path:url(#SVGID_342_);}
	.st156{clip-path:url(#SVGID_343_);}
	.st157{clip-path:url(#SVGID_344_);}
	.st158{clip-path:url(#SVGID_345_);}
	.st159{clip-path:url(#SVGID_346_);}
	.st160{clip-path:url(#SVGID_347_);}
	.st161{clip-path:url(#SVGID_348_);}
	.st162{clip-path:url(#SVGID_349_);}
	.st163{clip-path:url(#SVGID_350_);}
	.st164{clip-path:url(#SVGID_351_);}
	.st165{clip-path:url(#SVGID_352_);}
	.st166{clip-path:url(#SVGID_353_);}
	.st167{clip-path:url(#SVGID_354_);}
	.st168{clip-path:url(#SVGID_355_);}
	.st169{clip-path:url(#SVGID_356_);}
	.st170{clip-path:url(#SVGID_357_);}
	.st171{clip-path:url(#SVGID_358_);}
	.st172{clip-path:url(#SVGID_359_);}
	.st173{clip-path:url(#SVGID_360_);}
	.st174{clip-path:url(#SVGID_361_);}
	.st175{clip-path:url(#SVGID_362_);}
	.st176{clip-path:url(#SVGID_363_);}
	.st177{clip-path:url(#SVGID_364_);}
	.st178{clip-path:url(#SVGID_365_);}
	.st179{clip-path:url(#SVGID_366_);}
	.st180{clip-path:url(#SVGID_367_);}
	.st181{clip-path:url(#SVGID_368_);}
	.st182{clip-path:url(#SVGID_369_);}
	.st183{clip-path:url(#SVGID_370_);}
	.st184{clip-path:url(#SVGID_371_);}
	.st185{clip-path:url(#SVGID_372_);}
	.st186{clip-path:url(#SVGID_379_);}
	.st187{clip-path:url(#SVGID_380_);}
	.st188{clip-path:url(#SVGID_381_);}
	.st189{clip-path:url(#SVGID_382_);}
	.st190{clip-path:url(#SVGID_383_);}
	.st191{clip-path:url(#SVGID_384_);}
	.st192{clip-path:url(#SVGID_386_);}
	.st193{clip-path:url(#SVGID_391_);}
	.st194{clip-path:url(#SVGID_392_);}
	.st195{clip-path:url(#SVGID_393_);}
	.st196{clip-path:url(#SVGID_394_);}
	.st197{clip-path:url(#SVGID_412_);}
	.st198{clip-path:url(#SVGID_413_);}
	.st199{clip-path:url(#SVGID_414_);}
	.st200{clip-path:url(#SVGID_415_);}
	.st201{clip-path:url(#SVGID_416_);}
	.st202{clip-path:url(#SVGID_417_);}
	.st203{clip-path:url(#SVGID_418_);}
	.st204{clip-path:url(#SVGID_419_);}
	.st205{clip-path:url(#SVGID_420_);}
	.st206{clip-path:url(#SVGID_421_);}
	.st207{clip-path:url(#SVGID_422_);}
	.st208{clip-path:url(#SVGID_423_);}
	.st209{clip-path:url(#SVGID_424_);}
	.st210{clip-path:url(#SVGID_425_);}
	.st211{clip-path:url(#SVGID_426_);}
	.st212{clip-path:url(#SVGID_427_);}
	.st213{clip-path:url(#SVGID_428_);}
	.st214{clip-path:url(#SVGID_432_);}
	.st215{clip-path:url(#SVGID_433_);}
	.st216{clip-path:url(#SVGID_434_);}
	.st217{fill:none;}
	.st218{clip-path:url(#SVGID_440_);}
	.st219{clip-path:url(#SVGID_441_);}
	.st220{clip-path:url(#SVGID_442_);}
	.st221{clip-path:url(#SVGID_443_);}
	.st222{clip-path:url(#SVGID_444_);}
	.st223{clip-path:url(#SVGID_454_);}
	.st224{clip-path:url(#SVGID_455_);}
	.st225{clip-path:url(#SVGID_456_);}
	.st226{clip-path:url(#SVGID_457_);}
	.st227{clip-path:url(#SVGID_458_);}
	.st228{clip-path:url(#SVGID_459_);}
	.st229{clip-path:url(#SVGID_460_);}
	.st230{clip-path:url(#SVGID_461_);}
	.st231{clip-path:url(#SVGID_462_);}
	.st232{clip-path:url(#SVGID_469_);}
	.st233{clip-path:url(#SVGID_470_);}
	.st234{clip-path:url(#SVGID_471_);}
	.st235{clip-path:url(#SVGID_472_);}
	.st236{clip-path:url(#SVGID_473_);}
	.st237{clip-path:url(#SVGID_474_);}
	.st238{clip-path:url(#SVGID_479_);}
	.st239{clip-path:url(#SVGID_480_);}
	.st240{clip-path:url(#SVGID_481_);}
	.st241{clip-path:url(#SVGID_482_);}
	.st242{clip-path:url(#SVGID_486_);}
	.st243{clip-path:url(#SVGID_487_);}
	.st244{clip-path:url(#SVGID_488_);}
	.st245{clip-path:url(#SVGID_508_);}
	.st246{clip-path:url(#SVGID_509_);}
	.st247{clip-path:url(#SVGID_510_);}
	.st248{clip-path:url(#SVGID_511_);}
	.st249{clip-path:url(#SVGID_512_);}
	.st250{clip-path:url(#SVGID_513_);}
	.st251{clip-path:url(#SVGID_514_);}
	.st252{clip-path:url(#SVGID_515_);}
	.st253{clip-path:url(#SVGID_516_);}
	.st254{clip-path:url(#SVGID_517_);}
	.st255{clip-path:url(#SVGID_518_);}
	.st256{clip-path:url(#SVGID_519_);}
	.st257{clip-path:url(#SVGID_520_);}
	.st258{clip-path:url(#SVGID_521_);}
	.st259{clip-path:url(#SVGID_522_);}
	.st260{clip-path:url(#SVGID_523_);}
	.st261{clip-path:url(#SVGID_524_);}
	.st262{clip-path:url(#SVGID_525_);}
	.st263{clip-path:url(#SVGID_526_);}
	.st264{clip-path:url(#SVGID_530_);}
	.st265{clip-path:url(#SVGID_531_);}
	.st266{clip-path:url(#SVGID_532_);}
	.st267{clip-path:url(#SVGID_539_);}
	.st268{clip-path:url(#SVGID_540_);}
	.st269{clip-path:url(#SVGID_541_);}
	.st270{clip-path:url(#SVGID_542_);}
	.st271{clip-path:url(#SVGID_543_);}
	.st272{clip-path:url(#SVGID_544_);}
	.st273{clip-path:url(#SVGID_550_);}
	.st274{clip-path:url(#SVGID_551_);}
	.st275{clip-path:url(#SVGID_552_);}
	.st276{clip-path:url(#SVGID_553_);}
	.st277{clip-path:url(#SVGID_554_);}
	.st278{clip-path:url(#SVGID_568_);}
	.st279{clip-path:url(#SVGID_569_);}
	.st280{clip-path:url(#SVGID_570_);}
	.st281{clip-path:url(#SVGID_571_);}
	.st282{clip-path:url(#SVGID_572_);}
	.st283{clip-path:url(#SVGID_573_);}
	.st284{clip-path:url(#SVGID_574_);}
	.st285{clip-path:url(#SVGID_575_);}
	.st286{clip-path:url(#SVGID_576_);}
	.st287{clip-path:url(#SVGID_577_);}
	.st288{clip-path:url(#SVGID_578_);}
	.st289{clip-path:url(#SVGID_579_);}
	.st290{clip-path:url(#SVGID_580_);}
	.st291{clip-path:url(#SVGID_591_);}
	.st292{clip-path:url(#SVGID_592_);}
	.st293{clip-path:url(#SVGID_593_);}
	.st294{clip-path:url(#SVGID_594_);}
	.st295{clip-path:url(#SVGID_595_);}
	.st296{clip-path:url(#SVGID_596_);}
	.st297{clip-path:url(#SVGID_597_);}
	.st298{clip-path:url(#SVGID_598_);}
	.st299{clip-path:url(#SVGID_599_);}
	.st300{clip-path:url(#SVGID_600_);}
	.st301{clip-path:url(#SVGID_603_);}
	.st302{clip-path:url(#SVGID_604_);}
	.st303{clip-path:url(#SVGID_615_);}
	.st304{clip-path:url(#SVGID_616_);}
	.st305{clip-path:url(#SVGID_617_);}
	.st306{clip-path:url(#SVGID_618_);}
	.st307{clip-path:url(#SVGID_619_);}
	.st308{clip-path:url(#SVGID_620_);}
	.st309{clip-path:url(#SVGID_621_);}
	.st310{clip-path:url(#SVGID_622_);}
	.st311{clip-path:url(#SVGID_623_);}
	.st312{clip-path:url(#SVGID_624_);}
	.st313{clip-path:url(#SVGID_630_);}
	.st314{clip-path:url(#SVGID_631_);}
	.st315{clip-path:url(#SVGID_632_);}
	.st316{clip-path:url(#SVGID_633_);}
	.st317{clip-path:url(#SVGID_634_);}
	.st318{clip-path:url(#SVGID_638_);}
	.st319{clip-path:url(#SVGID_639_);}
	.st320{clip-path:url(#SVGID_640_);}
	.st321{clip-path:url(#SVGID_668_);}
	.st322{clip-path:url(#SVGID_669_);}
	.st323{clip-path:url(#SVGID_670_);}
	.st324{clip-path:url(#SVGID_671_);}
	.st325{clip-path:url(#SVGID_672_);}
	.st326{clip-path:url(#SVGID_673_);}
	.st327{clip-path:url(#SVGID_674_);}
	.st328{clip-path:url(#SVGID_675_);}
	.st329{clip-path:url(#SVGID_676_);}
	.st330{clip-path:url(#SVGID_677_);}
	.st331{clip-path:url(#SVGID_678_);}
	.st332{clip-path:url(#SVGID_679_);}
	.st333{clip-path:url(#SVGID_680_);}
	.st334{clip-path:url(#SVGID_681_);}
	.st335{clip-path:url(#SVGID_682_);}
	.st336{clip-path:url(#SVGID_683_);}
	.st337{clip-path:url(#SVGID_684_);}
	.st338{clip-path:url(#SVGID_685_);}
	.st339{clip-path:url(#SVGID_686_);}
	.st340{clip-path:url(#SVGID_687_);}
	.st341{clip-path:url(#SVGID_688_);}
	.st342{clip-path:url(#SVGID_689_);}
	.st343{clip-path:url(#SVGID_690_);}
	.st344{clip-path:url(#SVGID_691_);}
	.st345{clip-path:url(#SVGID_692_);}
	.st346{clip-path:url(#SVGID_693_);}
	.st347{clip-path:url(#SVGID_694_);}
</style>
<g>
	<defs>
		<path id="SVGID_1_" d="M423.95,18.66c29.23,0.01,58.08-0.04,86.92,0.06c7.72,0.03,14.51,2.45,19.68,8.68
			c3.29,3.97,4.65,8.42,4.65,13.46c-0.02,73.86-0.05,147.72-0.05,221.58c0.01,86.24,0.02,172.47,0.09,258.71
			c0.01,8.9-3.4,15.69-11.52,19.48c-2.92,1.36-6.38,2.2-9.6,2.2c-54.73,0.08-109.45-0.04-164.18-0.05
			c-51.38-0.02-102.75,0.06-154.13,0.05c-45.97-0.01-91.94-0.07-137.91-0.16c-7.2-0.01-14.41,0.01-21.59-0.45
			c-8.75-0.56-17.39-9.06-17.39-18.42c-0.02-22.81-0.11-45.62-0.11-68.44c0.01-88.94,0.11-177.88,0.06-266.82
			c-0.03-47.69-0.26-95.38-0.48-143.07c-0.05-10.93,2.87-20.24,13.8-24.69c3.79-1.54,8.23-2.03,12.38-2.03
			C170.91,18.65,297.24,18.67,423.95,18.66z M230.83,325.24c2.02-0.68,4.04-1.94,6.06-1.95c18.93-0.11,37.85-0.05,56.78,0.08
			c5.34,0.04,9.25,3.45,9.87,8.83c0.53,4.59,0.49,9.25,0.55,13.88c0.08,5.74,0.02,11.48,0.02,17.05c15.43,0,30.29,0,45,0
			c0-19.83-0.02-39.27,0.01-58.71c0.01-7.99,4.1-12,12.05-12.01c19.7-0.03,39.4-0.07,59.11-0.06c1.76,0,3.63,0.08,5.27,0.64
			c5.36,1.81,7.07,4.96,7.07,12.94c0.01,66.25,0,132.51-0.01,198.76c0,6.53,0,13.07,0,19.64c28.58,0,56.58,0,84.61,0
			c0-137.24,0-274.2,0-411.36c-160.23,0-320.21,0-480.21,0c0,137.18,0,274.24,0,411.3c8.31,0,16.24,0,24.5,0c0-1.63,0-3.02,0-4.42
			c0.01-19.85,0.04-39.7,0.03-59.55c-0.01-19.46-0.08-38.93-0.07-58.39c0-4.86,2.07-7.35,6.36-7.37c20.86-0.07,41.72-0.1,62.58,0.03
			c5.98,0.04,10.46,4.58,10.45,10.05c-0.09,38.92-0.19,77.84-0.28,116.77c0,0.99,0.14,1.97,0.2,2.88c9.24,0,18.19,0,27.4,0
			c0-1.44,0-2.58,0-3.72c0-26.55,0.01-53.11,0-79.66c0-6.42,1.99-8.54,8.46-8.55c15.45-0.03,30.91,0.02,46.36,0.04
			c1.49,0,2.98,0,4.7,0c0-1.71,0-2.86,0-4.01c-0.02-31.45-0.04-62.9-0.09-94.36C227.6,330.87,227.47,327.77,230.83,325.24z
			 M493.88,94.45c7.79,0,15.59,0,23.31,0c0-19.59,0-38.59,0-57.77c-160.23,0-320.18,0-480.18,0c0,19.37,0,38.47,0,57.77
			C189.28,94.45,341.2,94.45,493.88,94.45z M366.36,392.44c0,43.9,0,87.8,0,131.67c16.36,0,32.23,0,48.02,0
			c0-71.47,0-142.54,0-213.75c-16.12,0-32,0-48,0C366.38,337.71,366.38,364.73,366.36,392.44z M285.8,400.32
			c0-20.06,0-40.13,0-60.42c-13.84,0-27.39,0-40.79,0c0,61.69,0,123.07,0,184.3c13.65,0,26.99,0,40.79,0
			C285.8,482.96,285.8,442.03,285.8,400.32z M79.41,507.05c0,5.74,0,11.49,0,17.15c14.73,0,28.95,0,43.1,0c0-37.63,0-74.91,0-112.42
			c-14.55,0-28.74,0-43.1,0C79.42,443.47,79.42,474.87,79.41,507.05z M304.05,416.56c0,12.16,0,24.33,0,36.4c15.31,0,30.04,0,44.7,0
			c0-24.22,0-48.11,0-72.15c-14.98,0-29.69,0-44.7,0C304.05,392.65,304.05,404.22,304.05,416.56z M227.52,488.49
			c0-13.21,0-26.43,0-39.87c-14.07,0-27.65,0-41.31,0c0,25.34,0,50.4,0,75.64c13.78,0,27.34,0,41.3,0
			C227.52,512.4,227.52,500.83,227.52,488.49z M318.48,471.07c-4.72,0-9.44,0-14.23,0c0,18.02,0,35.57,0,53.11
			c15.04,0,29.77,0,44.51,0c0-17.79,0-35.23,0-53.11C338.76,471.07,329.01,471.07,318.48,471.07z"/>
	</defs>
	<defs>
		<path id="SVGID_2_" d="M135.69,285.45c11.04-23.89,51.38-27.48,68.86,0.94c25.79-15.28,51.59-30.57,77.66-46.01
			c-1.48-12.22-0.63-24.27,8.27-34.33c6.8-7.69,15.29-12.39,25.54-13.32c18.68-1.7,43.1,11.97,42.4,41.18
			c11.56,6.6,23.38,13.34,35.53,20.28c4.55-5.46,9-10.71,13.34-16.06c11.8-14.53,23.57-29.1,35.33-43.67
			c6.12-7.59,12.26-15.16,18.23-22.86c1.01-1.3,1.58-3.2,1.7-4.87c0.45-6,5.45-11.04,11.81-11.57c5.7-0.48,11.67,3.84,12.75,9.47
			c0.77,4.02-1.42,7.09-3.84,10.01c-14.29,17.3-28.57,34.61-42.82,51.94c-8.47,10.3-16.92,20.62-25.3,30.99
			c-2.65,3.28-5.15,6.7-7.57,10.15c-4.29,6.13-12.52,8.32-19.57,3.99c-9.9-6.08-20.15-11.6-30.25-17.34
			c-1.41-0.8-2.85-1.56-4.25-2.32c-16.08,23.65-45.93,24.72-61.77,4.26c-27.28,15.98-54.63,32.01-82.59,48.39
			c-0.54,12.77-6.47,23.41-17.44,30.95c-7.3,5.02-15.46,7.61-24.51,7.03c-13.92-0.89-33.72-12.01-33.4-33.09
			c-8.67,5.47-17.1,10.7-25.43,16.07c-11.81,7.6-23.54,15.32-35.32,22.97c-3.08,2-6.24,3.55-10.04,1.79
			c-3.69-1.7-5.97-4.58-6.36-8.51c-0.37-3.67,1.33-6.74,4.51-8.72c13.24-8.23,26.51-16.41,39.76-24.62
			c8.8-5.45,17.57-10.94,26.4-16.33c1.82-1.11,3.87-1.86,6.14-2.92C134.04,288.37,134.82,287.04,135.69,285.45z M305.36,216.63
			c-5.82,5.75-7.43,12.76-5.49,20.47c2.09,8.34,10.83,14.71,19.14,15.16c10.95,0.59,19.06-7.08,21.19-14.1
			c2.63-8.66,0.44-18.16-8.4-23.89C323.1,208.62,314.74,209.01,305.36,216.63z M175.69,323.23c0.47-0.2,0.94-0.41,1.41-0.6
			c12.66-4.89,17.5-18.3,10.31-29.35c-4.68-7.18-11.95-9.05-20.1-8.7c-8.72,0.38-15.4,5.73-17.94,14.6
			c-2.1,7.32,1.75,16.69,8.26,21.19C163.06,324.12,168.98,323.8,175.69,323.23z"/>
	</defs>
	<defs>
		<path id="SVGID_3_" d="M402.9,74.52c-4.47-4.75-5.49-10.04-3.11-15.31c2.07-4.6,6.37-7.08,12.2-6.69
			c5.82,0.39,10.2,3.22,12.52,8.66c1.87,4.39-0.16,9.94-4.77,13.9c-4.08,3.51-9.34,4.13-13.8,1.58
			C404.94,76.1,404.04,75.37,402.9,74.52z"/>
	</defs>
	<defs>
		<path id="SVGID_4_" d="M456.47,59.11c6.1-9.62,16.91-7.43,22.1-0.77c3.67,4.71,2.87,12.35-1.45,16.49
			c-4.51,4.32-12.36,4.43-17.23,0.25C454.54,70.49,453.57,66.21,456.47,59.11z"/>
	</defs>
	<defs>
		<path id="SVGID_5_" d="M366.92,78.2c-7.43-1.08-12.59-6.68-12.39-13.12c0.19-6.28,5.73-12.06,11.91-12.43
			c7.18-0.43,14.05,5.57,14.17,12.6C380.74,72.32,373.3,79.2,366.92,78.2z"/>
	</defs>
	<defs>
		<path id="SVGID_6_" d="M303.04,59.49c3.56-5.69,8.1-7.87,13.21-6.51c6.59,1.76,10.9,6.48,11.03,12.06
			c0.14,6.23-6.04,12.96-12.07,13.14c-6.69,0.2-13.07-5.48-13.28-12.09C301.86,63.99,302.52,61.85,303.04,59.49z"/>
	</defs>
	<use xlink:href="#SVGID_1_"  style="overflow:visible;"/>
	<use xlink:href="#SVGID_2_"  style="overflow:visible;"/>
	<use xlink:href="#SVGID_3_"  style="overflow:visible;"/>
	<use xlink:href="#SVGID_4_"  style="overflow:visible;"/>
	<use xlink:href="#SVGID_5_"  style="overflow:visible;"/>
	<use xlink:href="#SVGID_6_"  style="overflow:visible;"/>
	<clipPath id="SVGID_7_">
		<use xlink:href="#SVGID_1_"  style="overflow:visible;"/>
	</clipPath>
	<clipPath id="SVGID_8_" class="st0">
		<use xlink:href="#SVGID_2_"  style="overflow:visible;"/>
	</clipPath>
	<clipPath id="SVGID_9_" class="st1">
		<use xlink:href="#SVGID_3_"  style="overflow:visible;"/>
	</clipPath>
	<clipPath id="SVGID_10_" class="st2">
		<use xlink:href="#SVGID_4_"  style="overflow:visible;"/>
	</clipPath>
	<clipPath id="SVGID_11_" class="st3">
		<use xlink:href="#SVGID_5_"  style="overflow:visible;"/>
	</clipPath>
	<clipPath id="SVGID_12_" class="st4">
		<use xlink:href="#SVGID_6_"  style="overflow:visible;"/>
	</clipPath>
	<rect x="0" y="0" class="st5" width="553.65" height="561.52"/>
</g>
</svg>
